<svg width="80" height="80" viewBox="0 0 80 80" fill="none" xmlns="http://www.w3.org/2000/svg">
  <!-- Cercle extérieur rouge -->
  <circle cx="40" cy="40" r="38" fill="#dc2626" stroke="#ffffff" stroke-width="2"/>
  
  <!-- Texte extérieur -->
  <text x="40" y="15" text-anchor="middle" fill="white" font-family="Arial, sans-serif" font-size="6" font-weight="bold">CONFEDERATION DES ETATS DU SAHEL</text>
  
  <!-- Cercle intérieur vert -->
  <circle cx="40" cy="40" r="30" fill="#059669" stroke="#ffffff" stroke-width="1"/>
  
  <!-- Étoiles en haut -->
  <polygon points="25,20 27,26 33,26 28,30 30,36 25,32 20,36 22,30 17,26 23,26" fill="#fbbf24"/>
  <polygon points="35,18 36,22 40,22 37,24 38,28 35,26 32,28 33,24 30,22 34,22" fill="#fbbf24"/>
  <polygon points="45,18 46,22 50,22 47,24 48,28 45,26 42,28 43,24 40,22 44,22" fill="#fbbf24"/>
  
  <!-- Baobab stylisé -->
  <path d="M35 35 L35 50 L45 50 L45 35 L40 30 Z" fill="#92400e"/>
  <path d="M30 35 Q40 25 50 35" stroke="#059669" stroke-width="3" fill="none"/>
  <path d="M32 40 Q40 30 48 40" stroke="#059669" stroke-width="2" fill="none"/>
  <path d="M34 45 Q40 35 46 45" stroke="#059669" stroke-width="2" fill="none"/>
  
  <!-- Éléphants stylisés -->
  <ellipse cx="32" cy="52" rx="3" ry="2" fill="#374151"/>
  <ellipse cx="48" cy="52" rx="3" ry="2" fill="#374151"/>
  
  <!-- Oiseau -->
  <path d="M40 25 Q42 23 44 25" stroke="white" stroke-width="1" fill="none"/>
  
  <!-- Texte AES en bas -->
  <text x="40" y="65" text-anchor="middle" fill="white" font-family="Arial, sans-serif" font-size="12" font-weight="bold">AES</text>
  
  <!-- Devise -->
  <text x="40" y="72" text-anchor="middle" fill="white" font-family="Arial, sans-serif" font-size="4" font-weight="normal">Un Espace - Un Peuple - Un Destin</text>
</svg>
