<svg width="80" height="80" viewBox="0 0 80 80" fill="none" xmlns="http://www.w3.org/2000/svg">
  <!-- Cercle extérieur bleu -->
  <circle cx="40" cy="40" r="38" fill="#1e40af" stroke="#ffffff" stroke-width="2"/>
  
  <!-- Texte extérieur haut -->
  <text x="40" y="15" text-anchor="middle" fill="black" font-family="Arial, sans-serif" font-size="6" font-weight="bold">REPUBLIQUE DU MALI</text>
  
  <!-- Texte extérieur bas -->
  <text x="40" y="68" text-anchor="middle" fill="black" font-family="Arial, sans-serif" font-size="5" font-weight="bold">UN PEUPLE - UN BUT - UNE FOI</text>
  
  <!-- Mosquée stylisée -->
  <path d="M35 25 L35 35 L40 30 L45 35 L45 25 Z" fill="white"/>
  <rect x="37" y="20" width="6" height="8" fill="white"/>
  <rect x="38" y="18" width="4" height="3" fill="white"/>
  
  <!-- Arcs croisés -->
  <path d="M25 40 Q40 30 55 40" stroke="black" stroke-width="3" fill="none"/>
  <path d="M25 40 Q40 50 55 40" stroke="black" stroke-width="3" fill="none"/>
  
  <!-- Flèches -->
  <path d="M25 40 L30 35" stroke="black" stroke-width="2" fill="none"/>
  <path d="M25 40 L30 45" stroke="black" stroke-width="2" fill="none"/>
  <path d="M55 40 L50 35" stroke="black" stroke-width="2" fill="none"/>
  <path d="M55 40 L50 45" stroke="black" stroke-width="2" fill="none"/>
  
  <!-- Soleil central -->
  <circle cx="40" cy="40" r="8" fill="#fbbf24"/>
  <circle cx="40" cy="40" r="6" fill="#f59e0b"/>
  
  <!-- Rayons du soleil -->
  <line x1="40" y1="20" x2="40" y2="25" stroke="#fbbf24" stroke-width="2"/>
  <line x1="40" y1="55" x2="40" y2="60" stroke="#fbbf24" stroke-width="2"/>
  <line x1="20" y1="40" x2="25" y2="40" stroke="#fbbf24" stroke-width="2"/>
  <line x1="55" y1="40" x2="60" y2="40" stroke="#fbbf24" stroke-width="2"/>
  <line x1="28" y1="28" x2="31" y2="31" stroke="#fbbf24" stroke-width="2"/>
  <line x1="49" y1="49" x2="52" y2="52" stroke="#fbbf24" stroke-width="2"/>
  <line x1="52" y1="28" x2="49" y2="31" stroke="#fbbf24" stroke-width="2"/>
  <line x1="28" y1="52" x2="31" y2="49" stroke="#fbbf24" stroke-width="2"/>
  
  <!-- Oiseau au-dessus -->
  <path d="M40 15 Q42 13 44 15" stroke="white" stroke-width="1" fill="none"/>
</svg>
